<svg width="93.12" height="22.561" viewBox="0 0 93.12 22.561" xmlns="http://www.w3.org/2000/svg"><g id="svgGroup" stroke-linecap="round" fill-rule="evenodd" font-size="9pt" stroke="#212020b7" stroke-width="0.25mm" fill="#141413a5" style="stroke:#212020b7;stroke-width:0.25mm;fill:#141413a5"><path d="M 21.03 15.81 L 19.92 22.2 L 17.22 22.2 L 21.12 0 L 23.82 0 L 22.08 9.87 Q 23.01 8.22 24.525 7.23 A 6.064 6.064 0 0 1 26.407 6.397 A 5.509 5.509 0 0 1 27.72 6.24 A 5.555 5.555 0 0 1 29.139 6.411 A 3.967 3.967 0 0 1 31.005 7.485 A 4.194 4.194 0 0 1 32.22 10.529 A 8.086 8.086 0 0 1 32.199 11.092 Q 32.158 11.672 32.04 12.42 L 30.33 22.2 L 27.63 22.2 L 29.28 12.87 Q 29.398 12.301 29.442 11.967 A 3.828 3.828 0 0 0 29.46 11.805 A 8.153 8.153 0 0 0 29.485 11.411 A 6.568 6.568 0 0 0 29.49 11.16 A 3.135 3.135 0 0 0 29.387 10.336 A 2.337 2.337 0 0 0 28.815 9.315 A 2.255 2.255 0 0 0 27.34 8.622 A 3.078 3.078 0 0 0 27.06 8.61 A 3.463 3.463 0 0 0 26.068 8.764 Q 25.446 8.95 24.765 9.36 A 5.89 5.89 0 0 0 23.581 10.315 Q 23.119 10.792 22.694 11.408 A 10.627 10.627 0 0 0 22.5 11.7 Q 21.48 13.29 21.03 15.81 Z M 46.38 15.81 L 45.27 22.2 L 42.57 22.2 L 46.47 0 L 49.17 0 L 47.43 9.87 Q 48.36 8.22 49.875 7.23 A 6.064 6.064 0 0 1 51.757 6.397 A 5.509 5.509 0 0 1 53.07 6.24 A 5.555 5.555 0 0 1 54.489 6.411 A 3.967 3.967 0 0 1 56.355 7.485 A 4.194 4.194 0 0 1 57.57 10.529 A 8.086 8.086 0 0 1 57.549 11.092 Q 57.508 11.672 57.39 12.42 L 55.68 22.2 L 52.98 22.2 L 54.63 12.87 Q 54.748 12.301 54.792 11.967 A 3.828 3.828 0 0 0 54.81 11.805 A 8.153 8.153 0 0 0 54.835 11.411 A 6.568 6.568 0 0 0 54.84 11.16 A 3.135 3.135 0 0 0 54.737 10.336 A 2.337 2.337 0 0 0 54.165 9.315 A 2.255 2.255 0 0 0 52.69 8.622 A 3.078 3.078 0 0 0 52.41 8.61 A 3.463 3.463 0 0 0 51.418 8.764 Q 50.796 8.95 50.115 9.36 A 5.89 5.89 0 0 0 48.931 10.315 Q 48.469 10.792 48.044 11.408 A 10.627 10.627 0 0 0 47.85 11.7 Q 46.83 13.29 46.38 15.81 Z M 16.35 2.55 L 14.88 4.89 Q 13.8 4.2 12.615 3.75 Q 11.47 3.315 9.948 3.301 A 11.09 11.09 0 0 0 9.84 3.3 Q 8.443 3.3 7.476 3.776 A 3.564 3.564 0 0 0 6.99 4.065 A 2.774 2.774 0 0 0 6.335 4.7 A 2.263 2.263 0 0 0 5.91 6.06 Q 5.91 7.17 6.675 8.025 A 4.776 4.776 0 0 0 7.209 8.526 Q 8.022 9.192 9.51 9.99 Q 10.881 10.717 11.813 11.422 A 8.944 8.944 0 0 1 12.555 12.045 A 6.788 6.788 0 0 1 13.361 12.944 Q 13.79 13.526 14.018 14.14 A 4.28 4.28 0 0 1 14.025 14.16 A 6.675 6.675 0 0 1 14.386 15.76 A 8.271 8.271 0 0 1 14.43 16.62 A 5.945 5.945 0 0 1 14.197 18.314 A 4.968 4.968 0 0 1 13.485 19.785 A 5.802 5.802 0 0 1 11.56 21.496 A 7.258 7.258 0 0 1 10.86 21.84 A 8.659 8.659 0 0 1 8.799 22.422 A 11.728 11.728 0 0 1 6.96 22.56 A 13.737 13.737 0 0 1 4.784 22.395 A 10.739 10.739 0 0 1 3.06 21.975 A 10.341 10.341 0 0 1 0.781 20.897 A 9.232 9.232 0 0 1 0 20.34 L 1.86 18.03 Q 2.88 18.96 4.245 19.515 A 7.583 7.583 0 0 0 6.428 20.033 A 9.201 9.201 0 0 0 7.26 20.07 A 7.229 7.229 0 0 0 8.507 19.969 Q 9.194 19.848 9.748 19.584 A 3.742 3.742 0 0 0 10.365 19.215 A 2.702 2.702 0 0 0 11.501 17.259 A 3.463 3.463 0 0 0 11.52 16.89 A 3.541 3.541 0 0 0 11.375 15.864 A 3.166 3.166 0 0 0 11.175 15.36 A 3.12 3.12 0 0 0 10.838 14.836 Q 10.492 14.394 9.93 13.935 A 10.447 10.447 0 0 0 9.291 13.457 Q 8.557 12.946 7.502 12.355 A 34.609 34.609 0 0 0 7.35 12.27 A 18.094 18.094 0 0 1 6.036 11.458 Q 4.709 10.552 4.035 9.66 Q 3.072 8.386 3.06 6.41 A 8.23 8.23 0 0 1 3.06 6.36 A 5.351 5.351 0 0 1 3.288 4.77 A 4.548 4.548 0 0 1 3.945 3.45 A 5.476 5.476 0 0 1 5.581 1.961 A 7.008 7.008 0 0 1 6.42 1.53 A 8.186 8.186 0 0 1 8.477 0.954 A 10.837 10.837 0 0 1 10.08 0.84 A 13.251 13.251 0 0 1 11.987 0.971 A 10.293 10.293 0 0 1 13.5 1.305 Q 15.03 1.77 16.35 2.55 Z M 78 21.66 L 81.81 0 L 84.51 0 L 82.8 9.75 Q 83.67 8.16 85.035 7.2 Q 86.4 6.24 88.11 6.24 A 4.908 4.908 0 0 1 89.738 6.504 A 4.456 4.456 0 0 1 90.675 6.96 A 4.919 4.919 0 0 1 92.242 8.591 A 6.004 6.004 0 0 1 92.46 8.985 A 6.075 6.075 0 0 1 93.042 10.872 A 7.886 7.886 0 0 1 93.12 12 A 11.397 11.397 0 0 1 92.734 15.001 A 10.235 10.235 0 0 1 92.34 16.17 Q 91.56 18.09 90.135 19.53 Q 88.71 20.97 86.76 21.765 A 10.871 10.871 0 0 1 83.358 22.532 A 12.865 12.865 0 0 1 82.5 22.56 A 13.162 13.162 0 0 1 81.014 22.479 A 10.636 10.636 0 0 1 79.95 22.305 A 11.27 11.27 0 0 1 79.127 22.095 Q 78.487 21.904 78 21.66 Z M 75.48 7.32 L 73.59 17.97 A 2.392 2.392 0 0 0 73.565 18.121 Q 73.556 18.189 73.549 18.264 A 3.976 3.976 0 0 0 73.545 18.315 Q 73.53 18.51 73.53 18.72 A 2.297 2.297 0 0 0 73.568 19.152 Q 73.613 19.389 73.713 19.569 A 1.013 1.013 0 0 0 74.01 19.905 Q 74.439 20.213 75.108 20.246 A 3.319 3.319 0 0 0 75.27 20.25 L 74.34 22.35 A 5.304 5.304 0 0 1 73.402 22.272 Q 72.876 22.178 72.46 21.967 A 2.58 2.58 0 0 1 71.865 21.555 Q 71.165 20.904 71.038 19.659 A 5.722 5.722 0 0 1 71.01 19.08 Q 70.17 20.52 68.895 21.54 Q 67.62 22.56 65.91 22.56 Q 64.44 22.56 63.15 21.765 A 5.844 5.844 0 0 1 61.343 19.996 A 7.118 7.118 0 0 1 61.05 19.515 A 6.257 6.257 0 0 1 60.374 17.592 A 8.496 8.496 0 0 1 60.24 16.05 A 11.273 11.273 0 0 1 60.559 13.316 A 9.153 9.153 0 0 1 61.515 10.935 Q 62.79 8.73 65.04 7.485 A 9.993 9.993 0 0 1 68.897 6.304 A 12.411 12.411 0 0 1 70.17 6.24 Q 71.784 6.24 73.037 6.539 A 8.561 8.561 0 0 1 73.275 6.6 A 26.198 26.198 0 0 1 74.202 6.867 Q 74.636 7.002 75.005 7.136 A 11.821 11.821 0 0 1 75.48 7.32 Z M 40.32 6.6 L 37.59 22.2 L 34.89 22.2 L 37.62 6.6 L 40.32 6.6 Z M 71.7 13.56 L 72.51 8.91 Q 71.94 8.73 71.325 8.625 A 6.639 6.639 0 0 0 70.783 8.557 Q 70.357 8.52 69.84 8.52 A 7.792 7.792 0 0 0 68.018 8.724 A 6.171 6.171 0 0 0 66.24 9.45 Q 64.71 10.38 63.855 12.015 A 7.523 7.523 0 0 0 63.053 14.712 A 9.298 9.298 0 0 0 63 15.72 Q 63 17.16 63.525 18.15 A 4.226 4.226 0 0 0 64.129 19.02 A 3.44 3.44 0 0 0 64.89 19.65 A 3.528 3.528 0 0 0 65.895 20.073 A 3.123 3.123 0 0 0 66.63 20.16 A 3.419 3.419 0 0 0 68.736 19.434 A 4.338 4.338 0 0 0 68.88 19.32 A 5.831 5.831 0 0 0 69.856 18.278 Q 70.226 17.778 70.545 17.159 A 9.958 9.958 0 0 0 70.635 16.98 A 11.52 11.52 0 0 0 71.388 14.968 A 14.607 14.607 0 0 0 71.7 13.56 Z M 81.6 16.59 L 81 19.92 A 7.69 7.69 0 0 0 81.874 20.084 A 8.513 8.513 0 0 0 82.005 20.1 A 9.242 9.242 0 0 0 82.691 20.152 A 11.181 11.181 0 0 0 83.13 20.16 A 7.071 7.071 0 0 0 85.602 19.736 A 6.543 6.543 0 0 0 86.835 19.125 Q 88.47 18.09 89.415 16.32 Q 90.36 14.55 90.36 12.36 A 6.064 6.064 0 0 0 90.264 11.249 Q 90.082 10.269 89.55 9.6 A 2.65 2.65 0 0 0 88.562 8.812 Q 88.049 8.58 87.42 8.58 A 3.467 3.467 0 0 0 86.187 8.817 Q 85.745 8.984 85.293 9.27 A 6.144 6.144 0 0 0 85.2 9.33 A 4.859 4.859 0 0 0 84.303 10.105 Q 83.927 10.514 83.574 11.047 A 10.813 10.813 0 0 0 83.1 11.835 Q 82.14 13.59 81.6 16.59 Z M 39.094 3.877 A 2.269 2.269 0 0 0 39.6 3.93 A 2.657 2.657 0 0 0 39.658 3.929 A 2.024 2.024 0 0 0 41.1 3.33 A 1.975 1.975 0 0 0 41.585 2.55 A 2.356 2.356 0 0 0 41.7 1.8 Q 41.7 1.14 41.265 0.645 A 1.335 1.335 0 0 0 41.086 0.475 Q 40.838 0.281 40.496 0.203 A 2.269 2.269 0 0 0 39.99 0.15 A 2.684 2.684 0 0 0 39.877 0.152 A 2.04 2.04 0 0 0 38.49 0.735 A 1.907 1.907 0 0 0 37.982 1.587 A 2.495 2.495 0 0 0 37.89 2.28 Q 37.89 2.94 38.325 3.435 A 1.335 1.335 0 0 0 38.504 3.605 Q 38.752 3.799 39.094 3.877 Z" vector-effect="non-scaling-stroke"/></g></svg>